<?xml version="1.0" encoding="UTF-8" standalone="no"?>
<svg width="222px" height="55px" viewBox="0 0 222 55" version="1.1" xmlns="http://www.w3.org/2000/svg" xmlns:xlink="http://www.w3.org/1999/xlink">
    <!-- Generator: Sketch 3.8.2 (29753) - http://www.bohemiancoding.com/sketch -->
    <title>horizonal-blue-elephant</title>
    <desc>Created with Sketch.</desc>
    <defs></defs>
    <g id="Layouts" stroke="none" stroke-width="1" fill="none" fill-rule="evenodd">
        <g id="About-Us" transform="translate(-311.000000, -82.000000)">
            <g id="Group-7" transform="translate(311.000000, 71.000000)">
                <g id="horizonal-blue-elephant" transform="translate(0.000000, 11.000000)">
                    <path d="M15.2513333,26.2616124 L15.2513333,35.1162791 L10.6408,35.1162791 L10.6408,26.1394791 C10.6408,24.836717 10.4423353,23.8800155 10.0454,23.2693457 C9.64846468,22.658676 9.00727109,22.3533457 8.1218,22.3533457 C7.23632891,22.3533457 6.45264785,22.6841202 5.77073333,23.3456791 C5.08881881,24.0072379 4.74786667,24.979206 4.74786667,26.2616124 L4.74786667,35.1162791 L0.167866667,35.1162791 L0.167866667,18.6893457 L4.74786667,18.6893457 L4.74786667,20.5518791 C6.00991742,19.1269831 7.45514741,18.4145457 9.0836,18.4145457 C10.1217385,18.4145457 11.0631736,18.719876 11.9079333,19.3305457 C12.7526931,19.9412155 13.3887979,20.6841858 13.8162667,21.5594791 C14.447292,20.5620519 15.297128,19.7885485 16.3658,19.2389457 C17.434472,18.689343 18.5082168,18.4145457 19.5870667,18.4145457 C21.5208541,18.4145457 23.0780385,18.9895844 24.2586667,20.1396791 C25.4392948,21.2897737 26.0296,22.9538237 26.0296,25.1318791 L26.0296,35.1162791 L21.4190667,35.1162791 L21.4190667,26.1394791 C21.4190667,23.6153776 20.4928982,22.3533457 18.6405333,22.3533457 C17.7245288,22.3533457 16.93067,22.6841202 16.2589333,23.3456791 C15.5871966,24.0072379 15.2513333,24.979206 15.2513333,26.2616124 L15.2513333,26.2616124 Z M40.7772,27.5440124 L40.7772,18.6893457 L45.3877333,18.6893457 L45.3877333,35.1162791 L40.7772,35.1162791 L40.7772,32.9484124 C39.6372832,34.5565093 38.166609,35.3605457 36.3651333,35.3605457 C34.5636577,35.3605457 33.0522728,34.7956847 31.8309333,33.6659457 C30.6095939,32.5362068 29.9989333,30.8619791 29.9989333,28.6432124 L29.9989333,18.6893457 L34.6094667,18.6893457 L34.6094667,27.6356124 C34.6094667,30.1597139 35.5356352,31.4217457 37.388,31.4217457 C38.3040046,31.4217457 39.0978633,31.0909713 39.7696,30.4294124 C40.4413367,29.7678535 40.7772,28.8060632 40.7772,27.5440124 L40.7772,27.5440124 Z M60.3032667,33.8949457 C59.1124607,34.8720173 57.6010758,35.3605457 55.7690667,35.3605457 C54.5477272,35.3605457 53.2755177,35.1417257 51.9524,34.7040791 C50.6292823,34.2664324 49.4384942,33.62015 48.38,32.7652124 L50.3952,29.8950791 C52.1050752,31.2181968 53.9268792,31.8797457 55.8606667,31.8797457 C56.4509807,31.8797457 56.9191538,31.7627025 57.2652,31.5286124 C57.6112462,31.2945223 57.7842667,30.9841032 57.7842667,30.5973457 C57.7842667,30.2105882 57.5450913,29.8543696 57.0667333,29.5286791 C56.5883754,29.2029886 55.8962934,28.8976583 54.9904667,28.6126791 C54.0846399,28.3276999 53.3925579,28.0834356 52.9142,27.8798791 C52.4358421,27.6763225 51.8913364,27.3811699 51.2806667,26.9944124 C50.0389716,26.2208974 49.4181333,25.0759089 49.4181333,23.5594124 C49.4181333,22.0429159 50.0287939,20.8063283 51.2501333,19.8496124 C52.4714728,18.8928965 54.0490126,18.4145457 55.9828,18.4145457 C57.9165874,18.4145457 59.8503459,19.065917 61.7841333,20.3686791 L60.0742667,23.4220124 C58.6493707,22.4449409 57.2295849,21.9564124 55.8148667,21.9564124 C54.4001485,21.9564124 53.6928,22.3431641 53.6928,23.1166791 C53.6928,23.5441479 53.9167089,23.8800112 54.3645333,24.1242791 C54.8123578,24.368547 55.5553281,24.6535219 56.5934667,24.9792124 C57.6316052,25.3049029 58.3694867,25.554256 58.8071333,25.7272791 C59.24478,25.9003022 59.7689303,26.1700106 60.3796,26.5364124 C61.5195168,27.2285048 62.0894667,28.383671 62.0894667,30.0019457 C62.0894667,31.6202205 61.4940726,32.9178742 60.3032667,33.8949457 L60.3032667,33.8949457 Z M70.9441333,21.9869457 L70.9441333,29.3454791 C70.9441333,29.9765044 71.1069761,30.4701217 71.4326667,30.8263457 C71.7583572,31.1825697 72.1451089,31.3606791 72.5929333,31.3606791 C73.4478709,31.3606791 74.1704859,30.9739274 74.7608,30.2004124 L76.4706667,33.4064124 C75.0457707,34.7091745 73.5445634,35.3605457 71.967,35.3605457 C70.3894366,35.3605457 69.056161,34.8414843 67.9671333,33.8033457 C66.8781057,32.7652072 66.3336,31.3505102 66.3336,29.5592124 L66.3336,21.9869457 L64.41,21.9869457 L64.41,18.6893457 L66.3336,18.6893457 L66.3336,13.7734791 L70.9441333,13.7734791 L70.9441333,18.6893457 L74.9134667,18.6893457 L74.9134667,21.9869457 L70.9441333,21.9869457 Z M153.979533,33.8949457 C152.788727,34.8720173 151.277342,35.3605457 149.445333,35.3605457 C148.223994,35.3605457 146.951784,35.1417257 145.628667,34.7040791 C144.305549,34.2664324 143.114761,33.62015 142.056267,32.7652124 L144.071467,29.8950791 C145.781342,31.2181968 147.603146,31.8797457 149.536933,31.8797457 C150.127247,31.8797457 150.59542,31.7627025 150.941467,31.5286124 C151.287513,31.2945223 151.460533,30.9841032 151.460533,30.5973457 C151.460533,30.2105882 151.221358,29.8543696 150.743,29.5286791 C150.264642,29.2029886 149.57256,28.8976583 148.666733,28.6126791 C147.760907,28.3276999 147.068825,28.0834356 146.590467,27.8798791 C146.112109,27.6763225 145.567603,27.3811699 144.956933,26.9944124 C143.715238,26.2208974 143.0944,25.0759089 143.0944,23.5594124 C143.0944,22.0429159 143.705061,20.8063283 144.9264,19.8496124 C146.147739,18.8928965 147.725279,18.4145457 149.659067,18.4145457 C151.592854,18.4145457 153.526613,19.065917 155.4604,20.3686791 L153.750533,23.4220124 C152.325637,22.4449409 150.905852,21.9564124 149.491133,21.9564124 C148.076415,21.9564124 147.369067,22.3431641 147.369067,23.1166791 C147.369067,23.5441479 147.592976,23.8800112 148.0408,24.1242791 C148.488624,24.368547 149.231595,24.6535219 150.269733,24.9792124 C151.307872,25.3049029 152.045753,25.554256 152.4834,25.7272791 C152.921047,25.9003022 153.445197,26.1700106 154.055867,26.5364124 C155.195783,27.2285048 155.765733,28.383671 155.765733,30.0019457 C155.765733,31.6202205 155.170339,32.9178742 153.979533,33.8949457 L153.979533,33.8949457 Z M164.6204,21.9869457 L164.6204,29.3454791 C164.6204,29.9765044 164.783243,30.4701217 165.108933,30.8263457 C165.434624,31.1825697 165.821376,31.3606791 166.2692,31.3606791 C167.124138,31.3606791 167.846753,30.9739274 168.437067,30.2004124 L170.146933,33.4064124 C168.722037,34.7091745 167.22083,35.3605457 165.643267,35.3605457 C164.065703,35.3605457 162.732428,34.8414843 161.6434,33.8033457 C160.554372,32.7652072 160.009867,31.3505102 160.009867,29.5592124 L160.009867,21.9869457 L158.086267,21.9869457 L158.086267,18.6893457 L160.009867,18.6893457 L160.009867,13.7734791 L164.6204,13.7734791 L164.6204,18.6893457 L168.589733,18.6893457 L168.589733,21.9869457 L164.6204,21.9869457 Z M186.543333,35.1162791 L182.238133,35.1162791 L182.238133,33.1316124 C181.057505,34.6175754 179.597009,35.3605457 177.8566,35.3605457 C176.116191,35.3605457 174.655695,34.8567508 173.475067,33.8491457 C172.294439,32.8415407 171.704133,31.4980875 171.704133,29.8187457 C171.704133,28.139404 172.314794,26.882461 173.536133,26.0478791 C174.757473,25.2132971 176.426612,24.7960124 178.5436,24.7960124 L181.963333,24.7960124 L181.963333,24.7044124 C181.963333,22.9538259 181.037165,22.0785457 179.1848,22.0785457 C178.390929,22.0785457 177.551271,22.2362997 176.6658,22.5518124 C175.780329,22.8673251 175.03227,23.2591656 174.4216,23.7273457 L172.375867,20.7656124 C174.533566,19.1982268 176.996564,18.4145457 179.764933,18.4145457 C181.759788,18.4145457 183.388216,18.9132519 184.650267,19.9106791 C185.912317,20.9081063 186.543333,22.4856461 186.543333,24.6433457 L186.543333,35.1162791 Z M181.9328,28.8569457 L181.9328,28.0630791 L179.062667,28.0630791 C177.230658,28.0630791 176.314667,28.6330289 176.314667,29.7729457 C176.314667,30.3632598 176.533487,30.8161664 176.971133,31.1316791 C177.40878,31.4471918 178.034707,31.6049457 178.848933,31.6049457 C179.66316,31.6049457 180.380686,31.3555927 181.001533,30.8568791 C181.622381,30.3581655 181.9328,29.6915277 181.9328,28.8569457 L181.9328,28.8569457 Z M201.3062,33.8949457 C200.115394,34.8720173 198.604009,35.3605457 196.772,35.3605457 C195.550661,35.3605457 194.278451,35.1417257 192.955333,34.7040791 C191.632216,34.2664324 190.441428,33.62015 189.382933,32.7652124 L191.398133,29.8950791 C193.108009,31.2181968 194.929813,31.8797457 196.8636,31.8797457 C197.453914,31.8797457 197.922087,31.7627025 198.268133,31.5286124 C198.61418,31.2945223 198.7872,30.9841032 198.7872,30.5973457 C198.7872,30.2105882 198.548025,29.8543696 198.069667,29.5286791 C197.591309,29.2029886 196.899227,28.8976583 195.9934,28.6126791 C195.087573,28.3276999 194.395491,28.0834356 193.917133,27.8798791 C193.438775,27.6763225 192.89427,27.3811699 192.2836,26.9944124 C191.041905,26.2208974 190.421067,25.0759089 190.421067,23.5594124 C190.421067,22.0429159 191.031727,20.8063283 192.253067,19.8496124 C193.474406,18.8928965 195.051946,18.4145457 196.985733,18.4145457 C198.919521,18.4145457 200.853279,19.065917 202.787067,20.3686791 L201.0772,23.4220124 C199.652304,22.4449409 198.232518,21.9564124 196.8178,21.9564124 C195.403082,21.9564124 194.695733,22.3431641 194.695733,23.1166791 C194.695733,23.5441479 194.919642,23.8800112 195.367467,24.1242791 C195.815291,24.368547 196.558261,24.6535219 197.5964,24.9792124 C198.634539,25.3049029 199.37242,25.554256 199.810067,25.7272791 C200.247713,25.9003022 200.771864,26.1700106 201.382533,26.5364124 C202.52245,27.2285048 203.0924,28.383671 203.0924,30.0019457 C203.0924,31.6202205 202.497006,32.9178742 201.3062,33.8949457 L201.3062,33.8949457 Z M211.183733,26.2616124 L211.183733,35.1162791 L206.603733,35.1162791 L206.603733,12.4605457 L211.183733,12.4605457 L211.183733,20.5213457 C212.567918,19.1168054 214.120014,18.4145457 215.840067,18.4145457 C217.56012,18.4145457 219.010439,19.0252063 220.191067,20.2465457 C221.371695,21.4678852 221.962,23.0963133 221.962,25.1318791 L221.962,35.1162791 L217.382,35.1162791 L217.382,26.1394791 C217.382,23.6153776 216.455831,22.3533457 214.603467,22.3533457 C213.687462,22.3533457 212.888515,22.6841202 212.2066,23.3456791 C211.524685,24.0072379 211.183733,24.979206 211.183733,26.2616124 L211.183733,26.2616124 Z" id="must--------stash" fill="#4E4E4E"></path>
                    <g id="Group-Copy-2" transform="translate(81.966667, 0.000000)">
                        <g id="Group" transform="translate(0.000000, 2.208360)" fill="#86BBC9">
                            <path d="M22.17303,4.63755682 C21.2582627,2.47336364 20.6484177,2.78253409 15.4647359,0.618340909 C4.48752738,-4.01921591 -4.96506888,19.1685682 2.96291508,30.9170455 C10.890899,42.3563523 20.6484177,34.3179205 22.4779525,27.5161705 C24.3074873,20.40525 23.3927199,7.72926137 22.17303,4.63755682 L22.17303,4.63755682 Z" id="Shape"></path>
                            <path d="M33.7600835,4.63755682 C34.6748509,2.47336364 35.2846958,2.78253409 40.4683776,0.618340909 C51.4455862,-4.01921591 60.8981825,19.1685682 52.9701985,30.9170455 C45.0422145,42.3563523 35.2846958,34.3179205 33.4551611,27.5161705 C31.6256263,20.40525 32.5403937,7.72926137 33.7600835,4.63755682 L33.7600835,4.63755682 Z" id="Shape"></path>
                        </g>
                        <g id="Group" transform="translate(7.143249, 32.772068)" fill="#2D2D2D">
                            <path d="M20.5183856,2.51753085 C18.9937733,0.971678572 13.5051691,-2.73836688 8.6264097,3.75421266 C5.5771851,8.08259903 0.0885808263,5.60923539 1.30827067,2.51753085 C-0.521264093,4.06338312 -0.521264093,7.77342857 2.22303805,9.31928085 C6.18703002,11.483474 10.4559445,9.31928085 13.2002466,5.91840585 C16.2494712,2.51753085 22.3479204,4.99089448 23.5676102,6.84591721 C24.7873001,8.70093994 22.0429979,3.44504221 20.5183856,2.51753085 L20.5183856,2.51753085 Z" id="Shape"></path>
                            <path d="M19.6036183,2.51753085 C21.1282306,0.971678572 26.6168348,-2.73836688 31.4955942,3.75421266 C34.5448188,8.08259903 40.0334231,5.60923539 38.8137332,2.51753085 C40.643268,4.06338312 40.643268,7.77342857 37.8989659,9.31928085 C33.9349739,11.483474 29.6660594,9.31928085 26.9217573,5.91840585 C23.8725327,2.51753085 17.7740835,4.99089448 16.5543937,6.84591721 C15.3347038,8.70093994 18.3839284,3.44504221 19.6036183,2.51753085 L19.6036183,2.51753085 Z" id="Shape"></path>
                        </g>
                        <path d="M48.0914391,43.9463718 C47.4815942,44.2555422 46.5668268,44.8738831 45.347137,45.492224 C38.9437653,49.2022695 33.1502386,44.5647127 35.5896183,37.1446218 C36.1994632,35.5987695 36.5043857,34.3620877 37.419153,33.4345763 C43.8225247,29.7245309 48.0914391,24.1594627 46.8717493,17.6668831 C45.0422145,8.70093994 39.8585327,0.662508117 29.1862466,0.0441672078 L27.6616343,0.0441672078 L27.6616343,0.0441672078 L27.6616343,0.0441672078 L26.137022,0.0441672078 C15.4647359,0.662508117 10.2810541,8.70093994 8.45151935,17.6668831 C7.23182951,24.1594627 11.8056664,29.7245309 18.2090381,33.4345763 C19.1238054,34.3620877 20.0385728,35.5987695 20.0385728,37.1446218 C20.0385728,39.3088149 19.1238054,47.9655877 26.7468669,51.9848036 C35.5896183,56.9315309 46.5668268,52.6031445 50.2258964,47.3472468 C50.2258964,45.8013945 49.311129,44.2555422 48.0914391,43.9463718 L48.0914391,43.9463718 Z" id="Shape" fill="#99D0E4"></path>
                        <path d="M37.7240755,33.1254059 C31.9305488,33.1254059 27.0517894,28.1786786 27.0517894,22.3044399 C27.0517894,16.4302013 31.9305488,11.483474 37.7240755,11.483474 C43.5176022,11.483474 48.3963616,16.4302013 48.3963616,22.3044399 C48.3963616,28.1786786 43.5176022,33.1254059 37.7240755,33.1254059 L37.7240755,33.1254059 Z M37.7240755,13.6476672 C33.1502386,13.6476672 29.4911691,17.3577127 29.4911691,21.9952695 C29.4911691,26.6328263 33.1502386,30.3428718 37.7240755,30.3428718 C42.2979124,30.3428718 45.9569819,26.6328263 45.9569819,21.9952695 C45.9569819,17.3577127 42.2979124,13.6476672 37.7240755,13.6476672 L37.7240755,13.6476672 Z" id="Shape" fill="#2D2D2D"></path>
                        <g id="Group" transform="translate(16.639189, 21.641932)" fill="#2D2D2D">
                            <ellipse id="Oval" cx="21.0848865" cy="2.20836039" rx="2.13445722" ry="2.16419318"></ellipse>
                            <ellipse id="Oval" cx="2.17969401" cy="2.20836039" rx="2.13445722" ry="2.16419318"></ellipse>
                        </g>
                    </g>
                </g>
            </g>
        </g>
    </g>
</svg>