<?xml version="1.0" encoding="UTF-8" standalone="no"?>
<svg width="571px" height="437px" viewBox="0 0 571 437" version="1.1" xmlns="http://www.w3.org/2000/svg" xmlns:xlink="http://www.w3.org/1999/xlink">
    <!-- Generator: Sketch 3.8.1 (29687) - http://www.bohemiancoding.com/sketch -->
    <title>large-blue</title>
    <desc>Created with Sketch.</desc>
    <defs></defs>
    <g id="Page-1" stroke="none" stroke-width="1" fill="none" fill-rule="evenodd">
        <g id="large-blue">
            <g id="Group" transform="translate(17.000000, 5.000000)">
                <g transform="translate(48.869502, 14.729144)" id="Shape" fill="#86BBC9">
                    <path d="M153.531684,32.6719185 C147.151499,19.1478867 133.576638,-2.27632219 93.6665447,0.937309138 C55.2496865,3.88313786 -37.4666179,97.0784464 18.4618117,169.25125 C74.3902413,241.424054 140.364068,225.891502 153.395936,182.373578 C166.563551,138.855654 161.948098,50.4807921 153.531684,32.6719185 L153.531684,32.6719185 Z"></path>
                    <path d="M274.347952,32.6719185 C280.728137,19.1478867 294.302998,-2.27632219 334.213091,0.937309138 C372.62995,3.88313786 465.346254,97.0784464 409.417824,169.25125 C353.489395,241.424054 287.515568,225.891502 274.483701,182.373578 C261.451833,138.855654 265.931538,50.4807921 274.347952,32.6719185 L274.347952,32.6719185 Z"></path>
                </g>
                <g transform="translate(103.168948, 218.259128)" id="Shape" fill="#2D2D2D">
                    <path d="M130.997414,13.3901305 C119.458782,5.35605222 81.9921638,-16.0681566 54.706692,27.7175702 C37.1951206,55.702943 0.814491693,52.8910156 6.65168216,23.9683337 C-3.66521262,35.082142 -2.98646954,57.8453639 16.9685769,66.6828501 C44.2540487,78.7339676 69.910537,62.1302057 86.8791139,40.0364903 C104.662183,16.8715645 146.880002,29.7260898 154.753422,40.7059968 C162.491093,51.8198052 140.364068,19.9512945 130.997414,13.3901305 L130.997414,13.3901305 Z"></path>
                    <path d="M4.47970431,43.9196282 C-3.39371539,39.7686877 1.49323477,28.2531754 7.73767108,23.0310245 C13.8463588,17.9427749 26.6067286,18.2105775 29.1859523,28.6548794 C30.2719413,32.9397211 27.8284662,38.6974773 22.1270243,40.0364903 C26.1994828,36.2872538 24.5704994,30.6633989 20.0907951,28.6548794 C16.6970797,27.0480637 12.0816268,29.1904846 10.588392,33.341425 C9.09515724,37.4923655 10.588392,43.7857269 18.0545659,46.7315556 C17.1043256,49.1417791 7.19467662,50.6146934 4.47970431,43.9196282 L4.47970431,43.9196282 Z"></path>
                </g>
                <g transform="translate(264.709800, 218.259128)" id="Shape" fill="#2D2D2D">
                    <path d="M26.0637342,13.3901305 C37.6023665,5.35605222 75.0689844,-16.0681566 102.354456,27.7175702 C119.866027,55.702943 156.246656,52.8910156 150.409466,23.9683337 C160.726361,35.082142 160.047618,57.8453639 140.092571,66.6828501 C112.807099,78.7339676 87.1506112,62.1302057 70.1820342,40.0364903 C52.3989656,16.8715645 10.1811462,29.7260898 2.30772646,40.7059968 C-5.56569324,51.8198052 16.5613311,19.9512945 26.0637342,13.3901305 L26.0637342,13.3901305 Z"></path>
                    <path d="M152.581444,43.9196282 C160.454864,39.7686877 155.567913,28.2531754 149.323477,23.0310245 C143.214789,17.9427749 130.45442,18.2105775 127.875196,28.6548794 C126.789207,32.9397211 129.232682,38.6974773 134.934124,40.0364903 C130.861665,36.2872538 132.490649,30.6633989 136.970353,28.6548794 C140.364068,27.0480637 144.979521,29.1904846 146.472756,33.341425 C147.965991,37.4923655 146.472756,43.7857269 139.006582,46.7315556 C139.956823,49.1417791 149.866472,50.6146934 152.581444,43.9196282 L152.581444,43.9196282 Z"></path>
                </g>
                <g transform="translate(388.241040, 133.901305)" id="Shape" fill="#484748">
                    <path d="M4.07245847,7.63237441 C2.17197785,7.63237441 0.678743078,6.15946005 0.678743078,4.28484177 L0.678743078,4.01703916 C0.678743078,2.14242089 2.17197785,0.669506527 4.07245847,0.669506527 C5.97293908,0.669506527 7.46617385,2.14242089 7.46617385,4.01703916 L7.46617385,4.28484177 C7.46617385,6.15946005 5.97293908,7.63237441 4.07245847,7.63237441 L4.07245847,7.63237441 Z"></path>
                    <path d="M4.07245847,75.2525336 C2.17197785,75.2525336 0.678743078,73.7796193 0.678743078,71.905001 L0.678743078,71.2354945 C0.678743078,69.8964814 1.49323477,68.6913697 2.71497231,68.1557644 C1.49323477,67.6201592 0.678743078,66.4150475 0.678743078,65.0760344 L0.678743078,64.4065279 C0.678743078,63.0675148 1.49323477,61.8624031 2.71497231,61.3267979 C1.49323477,60.7911926 0.678743078,59.5860809 0.678743078,58.2470678 L0.678743078,57.5775613 C0.678743078,56.2385483 1.49323477,55.0334365 2.71497231,54.4978313 C1.49323477,53.9622261 0.678743078,52.7571143 0.678743078,51.4181013 L0.678743078,50.7485947 C0.678743078,49.4095817 1.49323477,48.2044699 2.71497231,47.6688647 C1.49323477,47.1332595 0.678743078,45.9281477 0.678743078,44.5891347 L0.678743078,44.1874308 C0.678743078,42.8484177 1.49323477,41.643306 2.71497231,41.1077008 C1.49323477,40.5720955 0.678743078,39.3669838 0.678743078,38.0279707 L0.678743078,37.4923655 C0.678743078,36.1533525 1.49323477,34.9482407 2.71497231,34.4126355 C1.49323477,33.8770303 0.678743078,32.6719185 0.678743078,31.3329055 L0.678743078,30.6633989 C0.678743078,29.3243859 1.49323477,28.1192741 2.71497231,27.5836689 C1.49323477,27.0480637 0.678743078,25.8429519 0.678743078,24.5039389 L0.678743078,23.8344324 C0.678743078,22.4954193 1.49323477,21.2903076 2.71497231,20.7547023 C1.49323477,20.2190971 0.678743078,19.0139854 0.678743078,17.6749723 L0.678743078,17.0054658 C0.678743078,15.6664527 1.49323477,14.461341 2.71497231,13.9257358 C1.49323477,13.3901305 0.678743078,12.1850188 0.678743078,10.8460057 L0.678743078,10.1764992 C0.678743078,8.30188093 2.17197785,6.82896657 4.07245847,6.82896657 C5.97293908,6.82896657 7.46617385,8.30188093 7.46617385,10.1764992 L7.46617385,10.8460057 C7.46617385,12.1850188 6.65168216,13.3901305 5.42994462,13.9257358 C6.65168216,14.461341 7.46617385,15.6664527 7.46617385,17.0054658 L7.46617385,17.6749723 C7.46617385,19.0139854 6.65168216,20.2190971 5.42994462,20.7547023 C6.65168216,21.2903076 7.46617385,22.4954193 7.46617385,23.8344324 L7.46617385,24.5039389 C7.46617385,25.8429519 6.65168216,27.0480637 5.42994462,27.5836689 C6.65168216,28.1192741 7.46617385,29.3243859 7.46617385,30.6633989 L7.46617385,31.3329055 C7.46617385,32.6719185 6.65168216,33.8770303 5.42994462,34.4126355 C6.65168216,34.9482407 7.46617385,36.1533525 7.46617385,37.4923655 L7.46617385,38.161872 C7.46617385,39.5008851 6.65168216,40.7059968 5.42994462,41.2416021 C6.65168216,41.7772073 7.46617385,42.982319 7.46617385,44.3213321 L7.46617385,44.9908386 C7.46617385,46.3298517 6.65168216,47.5349634 5.42994462,48.0705686 C6.65168216,48.6061739 7.46617385,49.8112856 7.46617385,51.1502987 L7.46617385,51.8198052 C7.46617385,53.1588182 6.65168216,54.36393 5.42994462,54.8995352 C6.65168216,55.4351404 7.46617385,56.6402522 7.46617385,57.9792652 L7.46617385,58.6487718 C7.46617385,59.9877848 6.65168216,61.1928966 5.42994462,61.7285018 C6.65168216,62.264107 7.46617385,63.4692187 7.46617385,64.8082318 L7.46617385,65.4777383 C7.46617385,66.8167514 6.65168216,68.0218631 5.42994462,68.5574684 C6.65168216,69.0930736 7.46617385,70.2981853 7.46617385,71.6371984 L7.46617385,72.3067049 C7.46617385,73.7796193 5.97293908,75.2525336 4.07245847,75.2525336 L4.07245847,75.2525336 Z"></path>
                    <path d="M4.07245847,81.6797963 C2.17197785,81.6797963 0.678743078,80.2068819 0.678743078,78.3322636 L0.678743078,78.064461 C0.678743078,76.1898428 2.17197785,74.7169284 4.07245847,74.7169284 C5.97293908,74.7169284 7.46617385,76.1898428 7.46617385,78.064461 L7.46617385,78.3322636 C7.46617385,80.2068819 5.97293908,81.6797963 4.07245847,81.6797963 L4.07245847,81.6797963 Z"></path>
                </g>
                <path d="M392.584996,361.533525 C386.883554,368.898096 380.096123,374.655852 369.236234,376.262668 C312.357564,384.966253 291.859523,336.761783 314.936788,259.768532 C317.923258,249.725935 321.58847,241.02235 327.561409,233.657778 C367.742999,208.082629 396.793203,169.117349 388.784035,124.929918 C377.5169,62.3980083 343.986992,6.29336135 275.841187,1.20511175 C272.854717,0.937309138 269.868248,0.803407832 266.881778,0.803407832 L266.203035,0.803407832 L265.524292,0.803407832 C262.537822,0.803407832 259.551353,0.937309138 256.564883,1.20511175 C188.419078,6.29336135 155.024919,62.3980083 143.622035,124.929918 C135.612867,169.25125 164.798819,208.484332 205.387655,233.92558 C211.632092,241.02235 216.247545,249.324231 216.247545,259.634631 C216.247545,275.702788 195.478006,369.031998 251.813682,406.926067 C309.506843,445.757446 398.693684,423.262026 424.893167,362.738636 C411.318305,354.838459 402.766142,358.185992 392.584996,361.533525 L392.584996,361.533525 Z" id="Shape" fill="#99D0E4"></path>
                <g transform="translate(0.000000, 291.904846)" id="Shape" fill="#2D2D2D">
                    <path d="M0.271497231,17.1393671 L12.8961185,17.1393671 L12.8961185,23.4327284 C15.882588,19.6834919 19.6835492,16.3359593 26.0637342,16.3359593 C31.9009246,16.3359593 36.380629,18.8800841 38.6883554,23.2988271 C42.6250653,18.7461828 47.2405182,16.3359593 53.3492059,16.3359593 C62.7158604,16.3359593 68.4173022,21.9598141 68.4173022,32.5380172 L68.4173022,61.3267979 L55.792681,61.3267979 L55.792681,36.6889577 C55.792681,30.7973002 53.0777087,27.7175702 48.3265071,27.7175702 C43.5753056,27.7175702 40.588836,30.7973002 40.588836,36.6889577 L40.588836,61.3267979 L27.9642148,61.3267979 L27.9642148,36.6889577 C27.9642148,30.7973002 25.2492425,27.7175702 20.4980409,27.7175702 C15.7468394,27.7175702 12.7603699,30.7973002 12.7603699,36.6889577 L12.7603699,61.3267979 L0.135748616,61.3267979 L0.135748616,17.1393671 L0.271497231,17.1393671 Z"></path>
                    <path d="M79.1414428,45.6603451 L79.1414428,17.1393671 L91.7660641,17.1393671 L91.7660641,41.7772073 C91.7660641,47.6688647 94.616785,50.7485947 99.5037352,50.7485947 C104.390685,50.7485947 107.377155,47.6688647 107.377155,41.7772073 L107.377155,17.1393671 L120.001776,17.1393671 L120.001776,61.3267979 L107.377155,61.3267979 L107.377155,55.0334365 C104.390685,58.7826731 100.725473,62.1302057 94.2095392,62.1302057 C84.8428847,62.1302057 79.1414428,55.8368443 79.1414428,45.6603451 L79.1414428,45.6603451 Z"></path>
                    <path d="M128.010944,55.4351404 L133.440889,47.2671608 C138.327839,50.7485947 143.350538,52.4893117 147.558745,52.4893117 C151.223958,52.4893117 152.852941,51.1502987 152.852941,49.1417791 L152.852941,49.0078778 C152.852941,46.3298517 148.508985,45.3925425 143.622035,43.9196282 C137.377599,42.0450099 130.318671,39.2330825 130.318671,30.6633989 L130.318671,30.5294976 C130.318671,21.5581102 137.649096,16.4698606 146.744253,16.4698606 C152.445695,16.4698606 158.554383,18.3444788 163.441333,21.5581102 L158.554383,30.261695 C154.074679,27.7175702 149.730723,26.1107545 146.472756,26.1107545 C143.350538,26.1107545 141.857303,27.4497676 141.857303,29.1904846 L141.857303,29.3243859 C141.857303,31.7346094 146.06551,32.9397211 150.95246,34.5465368 C157.196897,36.5550564 164.527322,39.6347864 164.527322,47.6688647 L164.527322,47.802766 C164.527322,57.5775613 157.061148,61.9963044 147.422996,61.9963044 C140.907063,62.1302057 133.983884,59.9877848 128.010944,55.4351404 L128.010944,55.4351404 Z"></path>
                    <path d="M174.708468,48.7400752 L174.708468,27.8514715 L169.414272,27.8514715 L169.414272,17.1393671 L174.708468,17.1393671 L174.708468,5.89165744 L187.333089,5.89165744 L187.333089,17.1393671 L197.785733,17.1393671 L197.785733,27.8514715 L187.333089,27.8514715 L187.333089,46.7315556 C187.333089,49.6773843 188.554827,51.0163973 191.405548,51.0163973 C193.713274,51.0163973 195.885252,50.4807921 197.649984,49.4095817 L197.649984,59.4521796 C194.935012,61.0589953 191.948542,61.9963044 187.604587,61.9963044 C180.002664,61.9963044 174.708468,58.9165744 174.708468,48.7400752 L174.708468,48.7400752 Z"></path>
                    <path d="M321.995716,55.4351404 L327.425661,47.2671608 C332.312611,50.7485947 337.33531,52.4893117 341.543517,52.4893117 C345.208729,52.4893117 346.837713,51.1502987 346.837713,49.1417791 L346.837713,49.0078778 C346.837713,46.3298517 342.493757,45.3925425 337.606807,43.9196282 C331.36237,42.0450099 324.303442,39.2330825 324.303442,30.6633989 L324.303442,30.5294976 C324.303442,21.5581102 331.633868,16.4698606 340.729025,16.4698606 C346.430467,16.4698606 352.539154,18.3444788 357.426105,21.5581102 L352.539154,30.261695 C348.05945,27.7175702 343.715494,26.1107545 340.457528,26.1107545 C337.33531,26.1107545 335.842075,27.4497676 335.842075,29.1904846 L335.842075,29.3243859 C335.842075,31.7346094 340.050282,32.9397211 344.937232,34.5465368 C351.181668,36.5550564 358.512094,39.6347864 358.512094,47.6688647 L358.512094,47.802766 C358.512094,57.5775613 351.04592,61.9963044 341.407768,61.9963044 C335.027583,62.1302057 327.968655,59.9877848 321.995716,55.4351404 L321.995716,55.4351404 Z"></path>
                    <path d="M368.69324,48.7400752 L368.69324,27.8514715 L363.399044,27.8514715 L363.399044,17.1393671 L368.69324,17.1393671 L368.69324,5.89165744 L381.317861,5.89165744 L381.317861,17.1393671 L391.770504,17.1393671 L391.770504,27.8514715 L381.45361,27.8514715 L381.45361,46.7315556 C381.45361,49.6773843 382.675347,51.0163973 385.526068,51.0163973 C387.833795,51.0163973 390.005772,50.4807921 391.770504,49.4095817 L391.770504,59.4521796 C389.055532,61.0589953 386.069062,61.9963044 381.725107,61.9963044 C373.987436,61.9963044 368.69324,58.9165744 368.69324,48.7400752 L368.69324,48.7400752 Z"></path>
                    <path d="M399.372427,39.6347864 L399.372427,39.5008851 C400.729913,29.9938924 408.739081,26.6463598 419.327473,28.1192741 C423.807178,28.7887807 426.929396,29.9938924 429.915865,31.4668068 L430.051614,30.7973002 C430.866106,25.7090506 428.015385,22.361518 421.770948,21.4242089 C417.019747,20.7547023 413.490283,21.1564062 409.146327,21.9598141 L407.381595,12.0511175 C412.540043,10.5782031 417.562741,9.9086966 425.028915,10.979907 C431.952095,11.9172162 436.567547,14.461341 439.28252,18.0766762 C442.133241,21.8259128 442.811984,26.7802611 441.997492,32.6719185 L438.196531,57.9792652 L426.114904,56.2385483 L426.793647,51.5520026 C423.264183,54.4978313 418.64873,55.9707456 412.540043,55.1673378 C404.259377,54.0961274 398.014941,48.3383712 399.372427,39.6347864 L399.372427,39.6347864 Z M428.558379,40.9737994 L428.829876,38.8313786 C426.793647,37.4923655 424.078675,36.4211551 421.092205,36.0194511 C415.662261,35.2160433 412.132797,36.822859 411.454054,40.8398981 L411.454054,40.9737994 C410.911059,44.3213321 413.490283,46.7315556 417.562741,47.2671608 C423.53568,48.0705686 427.879636,45.5264438 428.558379,40.9737994 L428.558379,40.9737994 Z"></path>
                    <path d="M448.513426,55.4351404 L453.94337,47.2671608 C458.83032,50.7485947 463.853019,52.4893117 468.061226,52.4893117 C471.726439,52.4893117 473.355422,51.1502987 473.355422,49.1417791 L473.355422,49.0078778 C473.355422,46.3298517 469.011467,45.3925425 464.124516,43.9196282 C457.88008,42.0450099 450.821152,39.2330825 450.821152,30.6633989 L450.821152,30.5294976 C450.821152,21.5581102 458.151577,16.4698606 467.246735,16.4698606 C472.948176,16.4698606 479.056864,18.3444788 483.943814,21.5581102 L479.056864,30.261695 C474.57716,27.7175702 470.233204,26.1107545 466.975237,26.1107545 C463.853019,26.1107545 462.359784,27.4497676 462.359784,29.1904846 L462.359784,29.3243859 C462.359784,31.7346094 466.567991,32.9397211 471.454942,34.5465368 C477.699378,36.5550564 485.029803,39.6347864 485.029803,47.6688647 L485.029803,47.802766 C485.029803,57.5775613 477.563629,61.9963044 467.925478,61.9963044 C461.545293,62.1302057 454.486365,59.9877848 448.513426,55.4351404 L448.513426,55.4351404 Z"></path>
                    <path d="M493.989212,1.20511175 L506.613833,1.20511175 L506.613833,23.4327284 C509.600303,19.6834919 513.265515,16.3359593 519.781449,16.3359593 C529.4196,16.3359593 534.985294,22.6293206 534.985294,32.6719185 L534.985294,61.1928966 L522.360672,61.1928966 L522.360672,36.5550564 C522.360672,30.6633989 519.509952,27.5836689 514.623001,27.5836689 C509.736051,27.5836689 506.749582,30.6633989 506.749582,36.5550564 L506.749582,61.1928966 L494.12496,61.1928966 L494.12496,1.20511175 L493.989212,1.20511175 Z"></path>
                </g>
                <g transform="translate(286.429579, 85.696835)">
                    <ellipse id="Oval" fill="#C6E7F6" cx="52.94196" cy="52.2215091" rx="48.8695016" ry="48.2044699"></ellipse>
                    <path d="M52.94196,103.773512 C24.1632536,103.773512 0.678743078,80.6085858 0.678743078,52.2215091 C0.678743078,23.8344324 24.1632536,0.669506527 52.94196,0.669506527 C81.7206665,0.669506527 105.205177,23.8344324 105.205177,52.2215091 C105.205177,80.6085858 81.7206665,103.773512 52.94196,103.773512 L52.94196,103.773512 Z M52.94196,7.3645718 C27.8284662,7.3645718 7.46617385,27.4497676 7.46617385,52.2215091 C7.46617385,76.9932506 27.8284662,97.0784464 52.94196,97.0784464 C78.0554539,97.0784464 98.4177462,76.9932506 98.4177462,52.2215091 C98.4177462,27.4497676 77.9197053,7.3645718 52.94196,7.3645718 L52.94196,7.3645718 Z" id="Shape" fill="#484748"></path>
                </g>
                <g transform="translate(183.260631, 135.240318)" id="Shape" fill="#484748">
                    <path d="M18.3260631,17.1393671 C16.5613311,17.1393671 14.9323477,16.8715645 13.8463588,16.6037619 C6.78743078,14.7291436 0.678743078,8.70358485 0.678743078,3.61533525 C0.678743078,1.74071697 2.17197785,0.267802611 4.07245847,0.267802611 C5.97293908,0.267802611 7.46617385,1.74071697 7.46617385,3.61533525 C7.46617385,4.9543483 10.8598892,8.97138746 15.7468394,10.1764992 C21.176784,11.5155123 26.1994828,8.70358485 30.000444,1.87461828 C30.9506843,0.267802611 32.9869136,-0.267802611 34.615897,0.669506527 C36.2448803,1.60681566 36.7878748,3.61533525 35.8376345,5.22215091 C30.2719413,14.9969462 23.2130133,17.1393671 18.3260631,17.1393671 L18.3260631,17.1393671 Z"></path>
                    <path d="M155.839411,17.1393671 C154.074679,17.1393671 152.445695,16.8715645 151.359706,16.6037619 C144.300778,14.7291436 138.192091,8.70358485 138.192091,3.61533525 C138.192091,1.74071697 139.685325,0.267802611 141.585806,0.267802611 C143.486287,0.267802611 144.979521,1.74071697 144.979521,3.61533525 C144.979521,4.9543483 148.373237,8.97138746 153.260187,10.1764992 C158.690132,11.5155123 163.71283,8.70358485 167.513792,1.87461828 C168.464032,0.267802611 170.500261,-0.267802611 172.129244,0.669506527 C173.758228,1.60681566 174.301222,3.61533525 173.350982,5.22215091 C167.785289,14.9969462 160.726361,17.1393671 155.839411,17.1393671 L155.839411,17.1393671 Z"></path>
                </g>
            </g>
        </g>
    </g>
</svg>